<svg xmlns="http://www.w3.org/2000/svg" xmlns:xlink="http://www.w3.org/1999/xlink" width="500" zoomAndPan="magnify" viewBox="0 0 375 374.999991" height="500" preserveAspectRatio="xMidYMid meet" version="1.0"><defs><g/><clipPath id="daef4ad377"><path d="M 42 13.148438 L 334 13.148438 L 334 182 L 42 182 Z M 42 13.148438 " clip-rule="nonzero"/></clipPath><clipPath id="f44a74d10e"><path d="M 196 109 L 342.511719 109 L 342.511719 361.898438 L 196 361.898438 Z M 196 109 " clip-rule="nonzero"/></clipPath><clipPath id="a114a2c655"><path d="M 32.761719 109 L 179 109 L 179 361.898438 L 32.761719 361.898438 Z M 32.761719 109 " clip-rule="nonzero"/></clipPath><clipPath id="2c3ca44160"><rect x="0" width="71" y="0" height="42"/></clipPath></defs><g clip-path="url(#daef4ad377)"><path fill="#004a89" d="M 333.75 97.289062 L 188.148438 13.210938 L 188.136719 13.214844 L 188.121094 13.210938 L 42.523438 97.347656 L 42.542969 97.363281 L 42.523438 97.375 L 188.125 181.453125 L 188.136719 181.445312 L 188.152344 181.453125 L 333.75 97.3125 L 333.734375 97.300781 Z M 333.75 97.289062 " fill-opacity="1" fill-rule="nonzero"/></g><g clip-path="url(#f44a74d10e)"><path fill="#000000" d="M 314.398438 227.132812 L 314.398438 261.671875 L 224.679688 313.472656 L 224.597656 294.421875 L 196.792969 310.375 L 196.867188 361.675781 L 342.277344 277.777344 L 342.203125 179.148438 L 342.195312 178.941406 L 224.671875 246.773438 L 224.679688 209.847656 L 314.40625 158.023438 L 314.398438 174.945312 L 342.203125 158.867188 L 342.203125 109.832031 L 196.796875 193.789062 L 196.859375 294.90625 Z M 314.398438 227.132812 " fill-opacity="1" fill-rule="nonzero"/></g><path fill="#000000" d="M 89.179688 207.28125 L 89.175781 245.164062 L 121.984375 264.105469 L 122.082031 226.164062 Z M 89.179688 207.28125 " fill-opacity="1" fill-rule="nonzero"/><g clip-path="url(#a114a2c655)"><path fill="#004a89" d="M 150.550781 313.507812 L 60.707031 261.652344 L 60.707031 157.84375 L 150.554688 209.746094 L 150.550781 226.617188 L 178.433594 242.710938 L 178.464844 193.660156 L 32.855469 109.597656 L 32.789062 277.757812 L 178.40625 361.789062 L 178.472656 315.058594 L 150.554688 298.957031 Z M 150.550781 313.507812 " fill-opacity="1" fill-rule="nonzero"/></g><g transform="matrix(1, 0, 0, 1, 268, 200)"><g clip-path="url(#2c3ca44160)"><g fill="#000000" fill-opacity="1"><g transform="translate(5.319456, 39.024779)"><g><path d="M 6.25 -2.828125 L 4.890625 -2.21875 L 3.734375 -3.5 L 1.234375 -2.359375 L 1.421875 -0.640625 L 0.09375 -0.046875 L -0.609375 -7.578125 L 1.046875 -8.328125 Z M 0.78125 -6.5625 L 1.09375 -3.625 L 2.890625 -4.4375 L 0.875 -6.609375 Z M 0.78125 -6.5625 "/></g></g></g><g fill="#000000" fill-opacity="1"><g transform="translate(11.666159, 36.149912)"><g><path d="M 2.484375 -1.015625 C 2.085938 -0.835938 1.695312 -0.773438 1.3125 -0.828125 C 0.925781 -0.878906 0.5625 -1.054688 0.21875 -1.359375 C -0.125 -1.671875 -0.421875 -2.101562 -0.671875 -2.65625 C -0.929688 -3.21875 -1.054688 -3.726562 -1.046875 -4.1875 C -1.046875 -4.644531 -0.9375 -5.035156 -0.71875 -5.359375 C -0.5 -5.691406 -0.1875 -5.953125 0.21875 -6.140625 C 0.53125 -6.273438 0.816406 -6.34375 1.078125 -6.34375 C 1.347656 -6.34375 1.617188 -6.265625 1.890625 -6.109375 L 1.953125 -6.171875 L 0.8125 -8.671875 L 2.0625 -9.234375 L 5.1875 -2.34375 L 3.9375 -1.78125 L 3.640625 -2.421875 L 3.5625 -2.40625 C 3.519531 -2.113281 3.410156 -1.84375 3.234375 -1.59375 C 3.066406 -1.351562 2.816406 -1.160156 2.484375 -1.015625 Z M 2.390625 -2.234375 C 2.734375 -2.390625 2.953125 -2.632812 3.046875 -2.96875 C 3.140625 -3.3125 3.070312 -3.738281 2.84375 -4.25 C 2.613281 -4.757812 2.335938 -5.085938 2.015625 -5.234375 C 1.703125 -5.390625 1.375 -5.390625 1.03125 -5.234375 C 0.675781 -5.066406 0.453125 -4.820312 0.359375 -4.5 C 0.273438 -4.175781 0.351562 -3.753906 0.59375 -3.234375 C 0.820312 -2.710938 1.085938 -2.375 1.390625 -2.21875 C 1.703125 -2.0625 2.035156 -2.066406 2.390625 -2.234375 Z M 2.390625 -2.234375 "/></g></g></g><g fill="#000000" fill-opacity="1"><g transform="translate(17.554117, 33.482843)"><g><path d="M 2.484375 -1.015625 C 2.085938 -0.835938 1.695312 -0.773438 1.3125 -0.828125 C 0.925781 -0.878906 0.5625 -1.054688 0.21875 -1.359375 C -0.125 -1.671875 -0.421875 -2.101562 -0.671875 -2.65625 C -0.929688 -3.21875 -1.054688 -3.726562 -1.046875 -4.1875 C -1.046875 -4.644531 -0.9375 -5.035156 -0.71875 -5.359375 C -0.5 -5.691406 -0.1875 -5.953125 0.21875 -6.140625 C 0.53125 -6.273438 0.816406 -6.34375 1.078125 -6.34375 C 1.347656 -6.34375 1.617188 -6.265625 1.890625 -6.109375 L 1.953125 -6.171875 L 0.8125 -8.671875 L 2.0625 -9.234375 L 5.1875 -2.34375 L 3.9375 -1.78125 L 3.640625 -2.421875 L 3.5625 -2.40625 C 3.519531 -2.113281 3.410156 -1.84375 3.234375 -1.59375 C 3.066406 -1.351562 2.816406 -1.160156 2.484375 -1.015625 Z M 2.390625 -2.234375 C 2.734375 -2.390625 2.953125 -2.632812 3.046875 -2.96875 C 3.140625 -3.3125 3.070312 -3.738281 2.84375 -4.25 C 2.613281 -4.757812 2.335938 -5.085938 2.015625 -5.234375 C 1.703125 -5.390625 1.375 -5.390625 1.03125 -5.234375 C 0.675781 -5.066406 0.453125 -4.820312 0.359375 -4.5 C 0.273438 -4.175781 0.351562 -3.753906 0.59375 -3.234375 C 0.820312 -2.710938 1.085938 -2.375 1.390625 -2.21875 C 1.703125 -2.0625 2.035156 -2.066406 2.390625 -2.234375 Z M 2.390625 -2.234375 "/></g></g></g><g fill="#000000" fill-opacity="1"><g transform="translate(23.442076, 30.815773)"><g/></g></g><g fill="#000000" fill-opacity="1"><g transform="translate(25.593275, 29.841344)"><g><path d="M 1.96875 -0.78125 C 1.644531 -0.632812 1.34375 -0.566406 1.0625 -0.578125 C 0.78125 -0.585938 0.523438 -0.675781 0.296875 -0.84375 C 0.0664062 -1.007812 -0.113281 -1.25 -0.25 -1.5625 C -0.382812 -1.863281 -0.4375 -2.140625 -0.40625 -2.390625 C -0.375 -2.648438 -0.253906 -2.898438 -0.046875 -3.140625 C 0.160156 -3.378906 0.457031 -3.628906 0.84375 -3.890625 C 1.125 -4.066406 1.328125 -4.21875 1.453125 -4.34375 C 1.578125 -4.46875 1.648438 -4.578125 1.671875 -4.671875 C 1.703125 -4.773438 1.691406 -4.882812 1.640625 -5 C 1.566406 -5.144531 1.453125 -5.234375 1.296875 -5.265625 C 1.148438 -5.304688 0.953125 -5.269531 0.703125 -5.15625 C 0.429688 -5.03125 0.195312 -4.847656 0 -4.609375 C -0.195312 -4.378906 -0.335938 -4.125 -0.421875 -3.84375 L -0.515625 -3.796875 L -1.390625 -4.34375 C -1.265625 -4.738281 -1.054688 -5.09375 -0.765625 -5.40625 C -0.472656 -5.726562 -0.113281 -5.988281 0.3125 -6.1875 C 0.957031 -6.476562 1.488281 -6.550781 1.90625 -6.40625 C 2.320312 -6.257812 2.644531 -5.929688 2.875 -5.421875 L 3.84375 -3.28125 C 3.9375 -3.0625 4.082031 -3 4.28125 -3.09375 C 4.351562 -3.125 4.414062 -3.171875 4.46875 -3.234375 L 4.5625 -3.25 L 5.03125 -2.40625 C 4.988281 -2.332031 4.910156 -2.253906 4.796875 -2.171875 C 4.679688 -2.085938 4.550781 -2.007812 4.40625 -1.9375 C 4.113281 -1.8125 3.859375 -1.765625 3.640625 -1.796875 C 3.421875 -1.835938 3.226562 -1.96875 3.0625 -2.1875 L 2.96875 -2.140625 C 2.957031 -1.523438 2.625 -1.070312 1.96875 -0.78125 Z M 1.9375 -1.875 C 2.21875 -2 2.398438 -2.195312 2.484375 -2.46875 C 2.566406 -2.738281 2.53125 -3.046875 2.375 -3.390625 L 2.15625 -3.890625 L 2.046875 -3.875 C 2.003906 -3.769531 1.929688 -3.671875 1.828125 -3.578125 C 1.734375 -3.484375 1.578125 -3.363281 1.359375 -3.21875 C 1.117188 -3.0625 0.960938 -2.898438 0.890625 -2.734375 C 0.816406 -2.578125 0.828125 -2.398438 0.921875 -2.203125 C 1.023438 -1.984375 1.164062 -1.847656 1.34375 -1.796875 C 1.519531 -1.742188 1.71875 -1.769531 1.9375 -1.875 Z M 1.9375 -1.875 "/></g></g></g><g fill="#000000" fill-opacity="1"><g transform="translate(30.773076, 27.495049)"><g/></g></g><g fill="#000000" fill-opacity="1"><g transform="translate(32.924275, 26.52062)"><g><path d="M 0.71875 -0.328125 L -2.40625 -7.21875 L -1.1875 -7.765625 L 0 -5.140625 L 0.109375 -5.171875 C 0.160156 -5.484375 0.273438 -5.757812 0.453125 -6 C 0.628906 -6.25 0.890625 -6.453125 1.234375 -6.609375 C 2.316406 -7.097656 3.132812 -6.722656 3.6875 -5.484375 L 5.125 -2.328125 L 3.890625 -1.765625 L 2.53125 -4.765625 C 2.375 -5.109375 2.191406 -5.320312 1.984375 -5.40625 C 1.785156 -5.5 1.546875 -5.484375 1.265625 -5.359375 C 0.921875 -5.203125 0.695312 -4.960938 0.59375 -4.640625 C 0.5 -4.316406 0.5625 -3.910156 0.78125 -3.421875 L 1.9375 -0.875 Z M 0.71875 -0.328125 "/></g></g></g><g fill="#000000" fill-opacity="1"><g transform="translate(38.678619, 23.914074)"><g><path d="M 3.875 -4.375 L 0.703125 -2.9375 C 0.929688 -2.53125 1.191406 -2.273438 1.484375 -2.171875 C 1.785156 -2.078125 2.117188 -2.113281 2.484375 -2.28125 C 2.753906 -2.40625 2.953125 -2.554688 3.078125 -2.734375 C 3.210938 -2.921875 3.289062 -3.148438 3.3125 -3.421875 L 3.390625 -3.453125 L 4.453125 -3.296875 C 4.453125 -2.878906 4.335938 -2.488281 4.109375 -2.125 C 3.890625 -1.769531 3.507812 -1.472656 2.96875 -1.234375 C 2.457031 -0.992188 1.96875 -0.882812 1.5 -0.90625 C 1.039062 -0.9375 0.625 -1.097656 0.25 -1.390625 C -0.113281 -1.691406 -0.421875 -2.113281 -0.671875 -2.65625 C -0.921875 -3.207031 -1.03125 -3.722656 -1 -4.203125 C -0.96875 -4.679688 -0.8125 -5.097656 -0.53125 -5.453125 C -0.25 -5.804688 0.109375 -6.085938 0.546875 -6.296875 C 1.253906 -6.609375 1.875 -6.660156 2.40625 -6.453125 C 2.945312 -6.253906 3.378906 -5.796875 3.703125 -5.078125 C 3.816406 -4.828125 3.894531 -4.628906 3.9375 -4.484375 Z M 2.453125 -4.6875 C 2.253906 -5.0625 2.035156 -5.296875 1.796875 -5.390625 C 1.554688 -5.492188 1.28125 -5.476562 0.96875 -5.34375 C 0.351562 -5.0625 0.15625 -4.53125 0.375 -3.75 Z M 2.453125 -4.6875 "/></g></g></g><g fill="#000000" fill-opacity="1"><g transform="translate(44.018758, 21.49515)"><g><path d="M 1.96875 -0.78125 C 1.644531 -0.632812 1.34375 -0.566406 1.0625 -0.578125 C 0.78125 -0.585938 0.523438 -0.675781 0.296875 -0.84375 C 0.0664062 -1.007812 -0.113281 -1.25 -0.25 -1.5625 C -0.382812 -1.863281 -0.4375 -2.140625 -0.40625 -2.390625 C -0.375 -2.648438 -0.253906 -2.898438 -0.046875 -3.140625 C 0.160156 -3.378906 0.457031 -3.628906 0.84375 -3.890625 C 1.125 -4.066406 1.328125 -4.21875 1.453125 -4.34375 C 1.578125 -4.46875 1.648438 -4.578125 1.671875 -4.671875 C 1.703125 -4.773438 1.691406 -4.882812 1.640625 -5 C 1.566406 -5.144531 1.453125 -5.234375 1.296875 -5.265625 C 1.148438 -5.304688 0.953125 -5.269531 0.703125 -5.15625 C 0.429688 -5.03125 0.195312 -4.847656 0 -4.609375 C -0.195312 -4.378906 -0.335938 -4.125 -0.421875 -3.84375 L -0.515625 -3.796875 L -1.390625 -4.34375 C -1.265625 -4.738281 -1.054688 -5.09375 -0.765625 -5.40625 C -0.472656 -5.726562 -0.113281 -5.988281 0.3125 -6.1875 C 0.957031 -6.476562 1.488281 -6.550781 1.90625 -6.40625 C 2.320312 -6.257812 2.644531 -5.929688 2.875 -5.421875 L 3.84375 -3.28125 C 3.9375 -3.0625 4.082031 -3 4.28125 -3.09375 C 4.351562 -3.125 4.414062 -3.171875 4.46875 -3.234375 L 4.5625 -3.25 L 5.03125 -2.40625 C 4.988281 -2.332031 4.910156 -2.253906 4.796875 -2.171875 C 4.679688 -2.085938 4.550781 -2.007812 4.40625 -1.9375 C 4.113281 -1.8125 3.859375 -1.765625 3.640625 -1.796875 C 3.421875 -1.835938 3.226562 -1.96875 3.0625 -2.1875 L 2.96875 -2.140625 C 2.957031 -1.523438 2.625 -1.070312 1.96875 -0.78125 Z M 1.9375 -1.875 C 2.21875 -2 2.398438 -2.195312 2.484375 -2.46875 C 2.566406 -2.738281 2.53125 -3.046875 2.375 -3.390625 L 2.15625 -3.890625 L 2.046875 -3.875 C 2.003906 -3.769531 1.929688 -3.671875 1.828125 -3.578125 C 1.734375 -3.484375 1.578125 -3.363281 1.359375 -3.21875 C 1.117188 -3.0625 0.960938 -2.898438 0.890625 -2.734375 C 0.816406 -2.578125 0.828125 -2.398438 0.921875 -2.203125 C 1.023438 -1.984375 1.164062 -1.847656 1.34375 -1.796875 C 1.519531 -1.742188 1.71875 -1.769531 1.9375 -1.875 Z M 1.9375 -1.875 "/></g></g></g><g fill="#000000" fill-opacity="1"><g transform="translate(49.198556, 19.148856)"><g><path d="M 2.484375 -1.015625 C 2.085938 -0.835938 1.695312 -0.773438 1.3125 -0.828125 C 0.925781 -0.878906 0.5625 -1.054688 0.21875 -1.359375 C -0.125 -1.671875 -0.421875 -2.101562 -0.671875 -2.65625 C -0.929688 -3.21875 -1.054688 -3.726562 -1.046875 -4.1875 C -1.046875 -4.644531 -0.9375 -5.035156 -0.71875 -5.359375 C -0.5 -5.691406 -0.1875 -5.953125 0.21875 -6.140625 C 0.53125 -6.273438 0.816406 -6.34375 1.078125 -6.34375 C 1.347656 -6.34375 1.617188 -6.265625 1.890625 -6.109375 L 1.953125 -6.171875 L 0.8125 -8.671875 L 2.0625 -9.234375 L 5.1875 -2.34375 L 3.9375 -1.78125 L 3.640625 -2.421875 L 3.5625 -2.40625 C 3.519531 -2.113281 3.410156 -1.84375 3.234375 -1.59375 C 3.066406 -1.351562 2.816406 -1.160156 2.484375 -1.015625 Z M 2.390625 -2.234375 C 2.734375 -2.390625 2.953125 -2.632812 3.046875 -2.96875 C 3.140625 -3.3125 3.070312 -3.738281 2.84375 -4.25 C 2.613281 -4.757812 2.335938 -5.085938 2.015625 -5.234375 C 1.703125 -5.390625 1.375 -5.390625 1.03125 -5.234375 C 0.675781 -5.066406 0.453125 -4.820312 0.359375 -4.5 C 0.273438 -4.175781 0.351562 -3.753906 0.59375 -3.234375 C 0.820312 -2.710938 1.085938 -2.375 1.390625 -2.21875 C 1.703125 -2.0625 2.035156 -2.066406 2.390625 -2.234375 Z M 2.390625 -2.234375 "/></g></g></g><g fill="#000000" fill-opacity="1"><g transform="translate(55.086517, 16.481785)"><g><path d="M -1.171875 -6.109375 C -1.398438 -6.003906 -1.613281 -5.988281 -1.8125 -6.0625 C -2.007812 -6.132812 -2.160156 -6.28125 -2.265625 -6.5 C -2.359375 -6.707031 -2.363281 -6.90625 -2.28125 -7.09375 C -2.195312 -7.289062 -2.039062 -7.441406 -1.8125 -7.546875 C -1.664062 -7.617188 -1.519531 -7.648438 -1.375 -7.640625 C -1.238281 -7.628906 -1.113281 -7.582031 -1 -7.5 C -0.894531 -7.414062 -0.8125 -7.304688 -0.75 -7.171875 C -0.6875 -7.023438 -0.660156 -6.882812 -0.671875 -6.75 C -0.679688 -6.613281 -0.726562 -6.488281 -0.8125 -6.375 C -0.90625 -6.269531 -1.023438 -6.179688 -1.171875 -6.109375 Z M 0.71875 -0.328125 L -1.5 -5.234375 L -0.28125 -5.78125 L 1.9375 -0.875 Z M 0.71875 -0.328125 "/></g></g></g><g fill="#000000" fill-opacity="1"><g transform="translate(57.732092, 15.283418)"><g><path d="M 0.71875 -0.328125 L -1.5 -5.234375 L -0.328125 -5.765625 L -0.015625 -5.0625 L 0.109375 -5.078125 C 0.160156 -5.773438 0.523438 -6.28125 1.203125 -6.59375 C 1.773438 -6.84375 2.265625 -6.875 2.671875 -6.6875 C 3.078125 -6.5 3.414062 -6.109375 3.6875 -5.515625 L 5.125 -2.328125 L 3.890625 -1.765625 L 2.515625 -4.8125 C 2.367188 -5.132812 2.195312 -5.335938 2 -5.421875 C 1.800781 -5.515625 1.554688 -5.492188 1.265625 -5.359375 C 0.910156 -5.191406 0.6875 -4.945312 0.59375 -4.625 C 0.5 -4.3125 0.5625 -3.910156 0.78125 -3.421875 L 1.9375 -0.875 Z M 0.71875 -0.328125 "/></g></g></g><g fill="#000000" fill-opacity="1"><g transform="translate(63.486431, 12.676875)"><g><path d="M 3.484375 0.921875 C 2.679688 1.285156 2.03125 1.4375 1.53125 1.375 C 1.039062 1.3125 0.695312 1.070312 0.5 0.65625 C 0.382812 0.394531 0.375 0.148438 0.46875 -0.078125 C 0.5625 -0.316406 0.742188 -0.539062 1.015625 -0.75 L 0.984375 -0.84375 C 0.765625 -0.863281 0.59375 -0.914062 0.46875 -1 C 0.351562 -1.09375 0.253906 -1.222656 0.171875 -1.390625 C -0.00390625 -1.773438 0.128906 -2.160156 0.578125 -2.546875 L 0.546875 -2.640625 C 0.203125 -2.660156 -0.0820312 -2.753906 -0.3125 -2.921875 C -0.550781 -3.097656 -0.738281 -3.34375 -0.875 -3.65625 C -1.019531 -3.976562 -1.078125 -4.296875 -1.046875 -4.609375 C -1.015625 -4.921875 -0.882812 -5.210938 -0.65625 -5.484375 C -0.425781 -5.765625 -0.109375 -5.992188 0.296875 -6.171875 C 0.703125 -6.359375 1.0625 -6.4375 1.375 -6.40625 C 1.414062 -6.6875 1.382812 -6.972656 1.28125 -7.265625 L 1.359375 -7.375 L 2.34375 -7.5625 C 2.414062 -7.300781 2.429688 -7.066406 2.390625 -6.859375 C 2.359375 -6.660156 2.257812 -6.453125 2.09375 -6.234375 L 2.140625 -6.125 C 2.523438 -6 2.816406 -5.722656 3.015625 -5.296875 C 3.148438 -4.984375 3.195312 -4.671875 3.15625 -4.359375 C 3.113281 -4.054688 2.976562 -3.769531 2.75 -3.5 C 2.519531 -3.238281 2.207031 -3.015625 1.8125 -2.828125 L 1.625 -2.75 C 1.488281 -2.695312 1.398438 -2.65625 1.359375 -2.625 C 1.242188 -2.582031 1.171875 -2.515625 1.140625 -2.421875 C 1.109375 -2.335938 1.113281 -2.25 1.15625 -2.15625 C 1.195312 -2.050781 1.269531 -1.988281 1.375 -1.96875 C 1.476562 -1.945312 1.617188 -1.96875 1.796875 -2.03125 L 2.921875 -2.5 C 4.015625 -2.945312 4.765625 -2.722656 5.171875 -1.828125 C 5.316406 -1.503906 5.363281 -1.179688 5.3125 -0.859375 C 5.269531 -0.535156 5.097656 -0.222656 4.796875 0.078125 C 4.503906 0.378906 4.066406 0.660156 3.484375 0.921875 Z M 1.421875 -3.6875 C 1.660156 -3.800781 1.8125 -3.957031 1.875 -4.15625 C 1.945312 -4.351562 1.921875 -4.578125 1.796875 -4.828125 C 1.679688 -5.097656 1.523438 -5.269531 1.328125 -5.34375 C 1.140625 -5.425781 0.925781 -5.410156 0.6875 -5.296875 C 0.445312 -5.191406 0.289062 -5.039062 0.21875 -4.84375 C 0.15625 -4.644531 0.179688 -4.410156 0.296875 -4.140625 C 0.421875 -3.890625 0.578125 -3.722656 0.765625 -3.640625 C 0.960938 -3.566406 1.179688 -3.582031 1.421875 -3.6875 Z M 3.09375 0.046875 C 3.507812 -0.140625 3.785156 -0.335938 3.921875 -0.546875 C 4.054688 -0.753906 4.082031 -0.957031 4 -1.15625 C 3.925781 -1.3125 3.820312 -1.398438 3.6875 -1.421875 C 3.5625 -1.453125 3.390625 -1.425781 3.171875 -1.34375 L 2.171875 -0.9375 C 2.148438 -0.914062 2.125 -0.898438 2.09375 -0.890625 C 2.0625 -0.878906 2.035156 -0.867188 2.015625 -0.859375 C 1.796875 -0.765625 1.65625 -0.648438 1.59375 -0.515625 C 1.53125 -0.378906 1.535156 -0.226562 1.609375 -0.0625 C 1.703125 0.144531 1.875 0.257812 2.125 0.28125 C 2.375 0.300781 2.695312 0.222656 3.09375 0.046875 Z M 3.09375 0.046875 "/></g></g></g></g></g></svg>